<svg width="80" height="80" viewBox="0 0 80 80" fill="none" xmlns="http://www.w3.org/2000/svg">
<g clip-path="url(#clip0)">
<path d="M77.9451 7.16573C76.0084 4.59814 73.0532 3.12568 69.837 3.12568H68.4755V2.34445C68.4755 1.05011 67.4261 0.000766597 66.1318 0.000766597C64.8374 0.000766597 63.7881 1.05011 63.7881 2.34445V8.59428C63.7881 9.88862 64.8374 10.938 66.1318 10.938C67.4261 10.938 68.4755 9.88862 68.4755 8.59428V7.81305H69.837C71.5687 7.81305 73.16 8.606 74.2028 9.98846C75.2456 11.3709 75.5709 13.1188 75.0951 14.784L68.8747 36.5555C67.1388 42.6312 61.5133 46.8743 55.1946 46.8743C48.8759 46.8743 43.2504 42.631 41.5145 36.5555L35.2942 14.7838C34.8184 13.1187 35.1437 11.3708 36.1865 9.9883C37.2293 8.60569 38.8207 7.8129 40.5523 7.8129H41.9137V8.59412C41.9137 9.88846 42.963 10.9378 44.2574 10.9378C45.5517 10.9378 46.6011 9.88846 46.6011 8.59412V2.3443C46.6011 1.04996 45.5517 0.000610352 44.2574 0.000610352C42.963 0.000610352 41.9137 1.04996 41.9137 2.3443V3.12552H40.5523C37.3363 3.12552 34.3809 4.59814 32.4443 7.16557C30.5074 9.73316 29.9036 12.9792 30.7871 16.0714L37.0076 37.843C38.146 41.8273 40.4962 45.252 43.8043 47.7474C44.5133 48.2823 45.2528 48.7596 46.0156 49.1849L52.8511 65.3185V67.01C52.8511 71.5872 49.1272 75.311 44.55 75.311C39.9728 75.311 36.249 71.5872 36.249 67.01V50.9367C36.249 43.5275 30.221 37.4996 22.8119 37.4996C15.4027 37.4996 9.37474 43.5275 9.37474 50.9367V56.4848C4.03239 57.5736 0 62.3083 0 67.9675C0 74.429 5.25689 79.6859 11.7184 79.6859C18.18 79.6859 23.4369 74.429 23.4369 67.9675C23.4369 62.3084 19.4045 57.5737 14.0621 56.4848V50.9367C14.0621 46.1122 17.9873 42.187 22.8119 42.187C27.6364 42.187 31.5616 46.1122 31.5616 50.9367V67.01C31.5616 74.1719 37.3882 79.9984 44.55 79.9984C51.7119 79.9984 57.5384 74.1719 57.5384 67.01V65.3185L64.374 49.1849C65.1368 48.7596 65.8763 48.2823 66.5852 47.7474C69.8932 45.2522 72.2435 41.8273 73.3819 37.843L79.6024 16.0714C80.4859 12.9793 79.8817 9.73316 77.9451 7.16573V7.16573ZM18.7495 67.9675C18.7495 71.8444 15.5954 74.9986 11.7184 74.9986C7.8415 74.9986 4.68737 71.8444 4.68737 67.9675C4.68737 64.0906 7.8415 60.9364 11.7184 60.9364C15.5954 60.9364 18.7495 64.0906 18.7495 67.9675ZM55.1947 58.8348L51.9992 51.2923C53.0456 51.4697 54.113 51.5617 55.1949 51.5617C56.2767 51.5617 57.3441 51.4697 58.3904 51.2923L55.1947 58.8348Z" fill="#17B978"/>
<path d="M11.7184 70.3118C13.0129 70.3118 14.0622 69.2624 14.0622 67.968C14.0622 66.6736 13.0129 65.6243 11.7184 65.6243C10.424 65.6243 9.37469 66.6736 9.37469 67.968C9.37469 69.2624 10.424 70.3118 11.7184 70.3118Z" fill="#17B978"/>
</g>
<defs>
<clipPath id="clip0">
<rect width="80" height="80" fill="white"/>
</clipPath>
</defs>
</svg>
